Coordinates
version=1
nRows=22
nColumns=24
inDegrees=yes

Units are S.I. units (second, meters, Newtons, ...)
Angles are in degrees.

endheader
time	pelvis_tilt	pelvis_list	pelvis_rotation	pelvis_tx	pelvis_ty	pelvis_tz	hip_flexion_r	hip_adduction_r	hip_rotation_r	knee_angle_r	ankle_angle_r	subtalar_angle_r	mtp_angle_r	hip_flexion_l	hip_adduction_l	hip_rotation_l	knee_angle_l	ankle_angle_l	subtalar_angle_l	mtp_angle_l	lumbar_extension	lumbar_bending	lumbar_rotation
      1.58350000	      2.12315229	      3.65118588	     -4.51397207	      0.43904196	      1.07272870	      0.30475309	     11.77968019	     -5.99846968	     -1.65270984	    -63.37337976	     -5.24801549	    -13.64838722	     12.26811104	      3.53741757	      9.57803284	     -0.76479107	     -4.15950651	     -2.21157109	     -7.10686383	      1.47845115	      2.83151954	     -1.01653865	      1.26814864
      1.58766667	      2.17009902	      3.66226039	     -4.42192034	      0.44378853	      1.07331094	      0.30465331	     12.31949482	     -5.95736814	     -1.47614082	    -63.20122821	     -4.87847613	    -13.78658905	     12.18385416	      3.07375720	      9.62682938	     -0.57117425	     -3.91525147	     -2.12854556	     -7.02079009	      1.44117868	      2.76152582	     -0.99512019	      1.14588703
      1.59183333	      2.22597507	      3.65424215	     -4.29059697	      0.44855178	      1.07391174	      0.30459986	     12.81757347	     -5.88727431	     -1.33361368	    -62.97482159	     -4.33913694	    -13.98536299	     12.08417721	      2.60006517	      9.64609401	     -0.38007378	     -3.69064445	     -1.99452272	     -6.95995694	      1.39613845	      2.68561633	     -0.99942653	      0.99735444
      1.59600000	      2.27435009	      3.64112591	     -4.15169369	      0.45330910	      1.07448031	      0.30454766	     13.31035846	     -5.80999330	     -1.19800242	    -62.70220933	     -3.86538511	    -14.14814557	     11.98851477	      2.13393587	      9.65660961	     -0.19662407	     -3.46800473	     -1.87260633	     -6.90167427	      1.35226580	      2.60238590	     -0.99993048	      0.84696751
      1.60016667	      2.31600844	      3.63285925	     -4.00160366	      0.45806171	      1.07500238	      0.30447405	     13.79902004	     -5.74094009	     -1.07346888	    -62.39194661	     -3.38348358	    -14.31115493	     11.88373592	      1.67602159	      9.67158658	     -0.00968785	     -3.24809238	     -1.74429391	     -6.85009695	      1.30332951	      2.52954659	     -1.00783490	      0.68234619
      1.60433333	      2.35558615	      3.62916042	     -3.85291875	      0.46275493	      1.07548048	      0.30440160	     14.28420646	     -5.67394563	     -0.93891187	    -62.03778770	     -2.92644676	    -14.46322497	     11.77360600	      1.22368926	      9.68848937	      0.17876482	     -3.02135521	     -1.62273801	     -6.80240271	      1.25094345	      2.46028431	     -1.02188380	      0.51192439
      1.60850000	      2.39091937	      3.63015582	     -3.70799612	      0.46750047	      1.07593176	      0.30435273	     14.75974409	     -5.61082703	     -0.81377227	    -61.64801478	     -2.48662366	    -14.61558142	     11.66008936	      0.76682525	      9.70790708	      0.37018051	     -2.78841949	     -1.50612438	     -6.75931606	      1.19619264	      2.39850547	     -1.04129717	      0.34120257
      1.61266667	      2.41953617	      3.62398850	     -3.55623742	      0.47224308	      1.07634332	      0.30427743	     15.22697578	     -5.54167132	     -0.69195684	    -61.21205469	     -2.05339275	    -14.77381658	     11.53383162	      0.31606475	      9.71722157	      0.56442120	     -2.55485183	     -1.38871608	     -6.72369715	      1.13440780	      2.34115981	     -1.05298091	      0.15848096
      1.61683333	      2.40892856	      3.61318776	     -3.41184331	      0.47694821	      1.07667008	      0.30432420	     15.72764466	     -5.44746385	     -0.53801068	    -60.71055826	     -1.84559326	    -14.85522541	     11.48976299	     -0.07880956	      9.70487298	      0.67089043	     -2.33638059	     -1.33689391	     -6.69009730	      1.11345293	      2.25918646	     -1.08581668	      0.09209444
      1.62100000	      2.44144929	      3.62882427	     -3.22493161	      0.48165040	      1.07701066	      0.30416913	     16.16646824	     -5.41795316	     -0.47102629	    -60.22169970	     -1.22430171	    -15.12853443	     11.31188758	     -0.53283073	      9.73834476	      0.92424436	     -2.10047634	     -1.15515046	     -6.69066805	      1.02475984	      2.23598697	     -1.11525819	     -0.15873090
      1.62516667	      2.44944624	      3.65997837	     -3.12660520	      0.48635492	      1.07725440	      0.30413675	     16.64424465	     -5.37944656	     -0.28978920	    -59.67915155	     -0.95197791	    -15.25661610	     11.20561069	     -0.96962569	      9.78437768	      1.13542086	     -1.82508995	     -1.08808604	     -6.63541505	      0.97203204	      2.22503055	     -1.13523407	     -0.29722944
      1.62933333	      2.44702259	      3.66630807	     -2.92436232	      0.49103103	      1.07748091	      0.30403324	     17.09156562	     -5.33364912	     -0.22664555	    -59.08918304	     -0.49913654	    -15.49405113	     10.97937078	     -1.37526903	      9.79176630	      1.34163600	     -1.60935806	     -0.94470785	     -6.67188920	      0.85584220	      2.17880797	     -1.19482468	     -0.55362386
      1.63350000	      2.41440324	      3.69618271	     -2.82617871	      0.49572929	      1.07759681	      0.30410307	     17.58622106	     -5.27927180	     -0.03231582	    -58.45460941	     -0.35364296	    -15.56896851	     10.93249831	     -1.75728874	      9.81974335	      1.47026475	     -1.35464983	     -0.91371065	     -6.62191563	      0.83320069	      2.13440173	     -1.23379070	     -0.60390649
      1.63766667	      2.41630677	      3.74665273	     -2.72803245	      0.50044620	      1.07770875	      0.30403839	     18.03605271	     -5.26940500	      0.12394001	    -57.82119286	     -0.01583021	    -15.79171532	     10.83598831	     -2.19250460	      9.88400429	      1.69513178	     -1.07058929	     -0.81325925	     -6.58308340	      0.78602717	      2.19742094	     -1.27374609	     -0.70462114
      1.64183333	      2.36837936	      3.76871745	     -2.58451125	      0.50514317	      1.07775067	      0.30409776	     18.50670615	     -5.21586710	      0.26381549	    -57.10744621	      0.18549261	    -15.91768673	     10.78198530	     -2.54830792	      9.89114208	      1.80833298	     -0.84588558	     -0.74909208	     -6.56700054	      0.75975606	      2.14181191	     -1.33153281	     -0.76283504
      1.64600000	      2.35208105	      3.82886469	     -2.45917270	      0.50986202	      1.07776181	      0.30396230	     18.94625630	     -5.23158152	      0.36850187	    -56.40893247	      0.54336560	    -16.21877496	     10.65580433	     -2.96290253	      9.96312306	      2.07104498	     -0.57020595	     -0.60763012	     -6.55501081	      0.69768453	      2.23166498	     -1.37990043	     -0.90046581
      1.65016667	      2.29671555	      3.87325734	     -2.31894754	      0.51458057	      1.07769537	      0.30392838	     19.40383180	     -5.21758026	      0.47903684	    -55.64483574	      0.76550743	    -16.46045018	     10.51315692	     -3.32467487	     10.00034619	      2.28104196	     -0.32004798	     -0.49841284	     -6.56090142	      0.62574148	      2.26313155	     -1.44392678	     -1.04853682
      1.65433333	      2.24735558	      3.92651134	     -2.19070735	      0.51928562	      1.07759977	      0.30390157	     19.84813742	     -5.21387203	      0.59510044	    -54.84978456	      0.93035868	    -16.66650181	     10.38144583	     -3.68797499	     10.04638420	      2.45567439	     -0.07404587	     -0.40969122	     -6.55482338	      0.55923892	      2.29368463	     -1.51777256	     -1.17084215
      1.65850000	      2.19277075	      3.98347656	     -2.06726297	      0.52398876	      1.07745034	      0.30387549	     20.28585020	     -5.21557534	      0.70772621	    -54.02230909	      1.07880267	    -16.88039135	     10.25104087	     -4.04588904	     10.09519820	      2.62905243	      0.17411664	     -0.31548637	     -6.54272488	      0.49390441	      2.33365960	     -1.59241171	     -1.28141826
      1.66266667	      2.13683869	      4.04248996	     -1.93910891	      0.52869944	      1.07727168	      0.30384020	     20.70913966	     -5.22467775	      0.80201863	    -53.16089469	      1.19488727	    -17.11028149	     10.10605373	     -4.40132673	     10.14444254	      2.80156981	      0.41636211	     -0.21278875	     -6.52893057	      0.42130138	      2.38006141	     -1.67173300	     -1.39500964
      1.66683333	      2.06409050	      4.11521948	     -1.82417171	      0.53338280	      1.07700600	      0.30381262	     21.14908317	     -5.24685424	      0.90087492	    -52.28108424	      1.27890546	    -17.17731917	     10.07185340	     -4.71709975	     10.21095159	      2.83203733	      0.63354547	     -0.17128253	     -6.50991667	      0.40515978	      2.30776179	     -1.74508026	     -1.41796274
      1.67100000	      1.99992135	      4.18102531	     -1.73547022	      0.53811094	      1.07672618	      0.30385522	     21.56223617	     -5.25016924	      1.02608064	    -51.36062339	      1.37418087	    -17.28569735	     10.03157456	     -5.06155097	     10.26398897	      2.93710405	      0.88044929	     -0.10792782	     -6.46839290	      0.38719557	      2.30424013	     -1.83704680	     -1.44241904
